<svg xmlns="http://www.w3.org/2000/svg" viewBox="0 0 560 620" aria-hidden="true">
  <defs>
    <linearGradient id="polyBase" x1="0" y1="0" x2="1" y2="1">
      <stop offset="0%" stop-color="#f5f5f5" />
      <stop offset="30%" stop-color="#d8d8d8" />
      <stop offset="66%" stop-color="#747474" />
      <stop offset="100%" stop-color="#1e1e1e" />
    </linearGradient>
  </defs>
  <polygon points="116,130 302,84 404,124 458,222 430,358 326,470 196,500 108,430 66,312 78,204" fill="url(#polyBase)" />
  <polygon points="116,130 196,184 170,314 94,258 78,204" fill="#f4f4f4" />
  <polygon points="196,184 302,84 404,124 360,182 262,176" fill="#dedede" />
  <polygon points="170,314 196,184 262,176 258,310 190,374" fill="#c7c7c7" />
  <polygon points="94,258 170,314 190,374 108,430 66,312" fill="#e3e3e3" />
  <polygon points="262,176 360,182 348,290 258,310" fill="#aaaaaa" />
  <polygon points="360,182 404,124 458,222 438,292 370,378 348,290" fill="#808080" />
  <polygon points="258,310 348,290 370,378 292,444 190,374" fill="#595959" />
  <polygon points="190,374 292,444 196,500 108,430" fill="#404040" />
  <polygon points="292,444 370,378 326,470 196,500" fill="#272727" />
  <polyline points="116,130 196,184 262,176 360,182 404,124" fill="none" stroke="rgba(255,255,255,0.34)" stroke-width="2" />
  <polyline points="94,258 170,314 190,374 108,430" fill="none" stroke="rgba(255,255,255,0.24)" stroke-width="2" />
  <polyline points="262,176 258,310 348,290 370,378" fill="none" stroke="rgba(0,0,0,0.3)" stroke-width="2" />
  <polyline points="190,374 292,444 326,470" fill="none" stroke="rgba(0,0,0,0.34)" stroke-width="2" />
</svg>