<svg xmlns="http://www.w3.org/2000/svg" viewBox="0 0 620 820" aria-hidden="true">
  <defs>
    <linearGradient id="weaponFace" x1="0" y1="0" x2="1" y2="1">
      <stop offset="0%" stop-color="#fafafa" />
      <stop offset="24%" stop-color="#dedede" />
      <stop offset="58%" stop-color="#777777" />
      <stop offset="100%" stop-color="#101010" />
    </linearGradient>
    <linearGradient id="weaponSpine" x1="0" y1="0" x2="0.7" y2="1">
      <stop offset="0%" stop-color="#d8d8d8" />
      <stop offset="45%" stop-color="#6e6e6e" />
      <stop offset="100%" stop-color="#141414" />
    </linearGradient>
    <linearGradient id="weaponShadow" x1="0" y1="0" x2="1" y2="0.9">
      <stop offset="0%" stop-color="#30333a" />
      <stop offset="100%" stop-color="#050608" />
    </linearGradient>
  </defs>
  <polygon points="304,32 358,56 342,118 294,102" fill="#0f1115" opacity="0.86" />
  <polygon points="236,118 304,32 294,102 246,156 212,146" fill="#171a20" opacity="0.76" />
  <polygon points="358,56 452,138 430,190 342,118" fill="#111317" opacity="0.86" />
  <polygon points="182,204 236,118 246,156 210,302 170,298" fill="#101217" opacity="0.78" />
  <polygon points="430,190 494,314 466,344 398,278 396,214" fill="#08090c" opacity="0.9" />
  <polygon points="164,462 206,430 194,590 144,622 122,548" fill="#0a0b0f" opacity="0.84" />
  <polygon points="388,450 466,344 484,544 422,612 392,552" fill="#090a0d" opacity="0.9" />

  <polygon points="206,642 194,438 220,228 274,90 348,80 396,214 392,422 358,660 280,762" fill="url(#weaponFace)" />
  <polygon points="206,642 194,438 220,228 254,268 250,514 246,700" fill="#f4f4f4" />
  <polygon points="220,228 274,90 348,80 332,168 254,268" fill="#dfdfdf" />
  <polygon points="254,268 332,168 338,372 300,514 250,514" fill="url(#weaponSpine)" />
  <polygon points="332,168 396,214 392,422 338,372" fill="#767676" />
  <polygon points="250,514 300,514 280,762 246,700" fill="#5a5a5a" />
  <polygon points="300,514 338,372 358,660 280,762" fill="#282828" />
  <polygon points="338,372 392,422 358,660" fill="#171717" />
  <polygon points="246,156 294,102 342,118 332,168 254,268 220,228" fill="#cbcbcb" opacity="0.92" />
  <polygon points="246,700 280,762 238,788 204,748" fill="#d8d8d8" opacity="0.82" />
  <polygon points="280,762 358,660 404,724 318,804" fill="url(#weaponShadow)" />

  <polyline points="274,90 246,156 254,268 250,514 246,700" fill="none" stroke="rgba(255,255,255,0.38)" stroke-width="2" />
  <polyline points="348,80 332,168 338,372 358,660" fill="none" stroke="rgba(255,255,255,0.18)" stroke-width="2" />
  <polyline points="254,268 332,168 396,214" fill="none" stroke="rgba(255,255,255,0.34)" stroke-width="2" />
  <polyline points="300,514 338,372 392,422" fill="none" stroke="rgba(0,0,0,0.36)" stroke-width="2" />
  <polyline points="246,700 280,762 318,804 404,724" fill="none" stroke="rgba(0,0,0,0.42)" stroke-width="2" />
</svg>